<mxfile host="app.diagrams.net" modified="2024-04-25T02:54:00.083Z" agent="Mozilla/5.0 (Windows NT 10.0; Win64; x64) AppleWebKit/537.36 (KHTML, like Gecko) Chrome/124.0.0.0 Safari/537.36 Edg/124.0.0.0" etag="LjmKqEv2JIeDp5waqi5H" version="21.2.1" type="github">
  <diagram id="prtHgNgQTEPvFCAcTncT" name="Page-1">
    <mxGraphModel dx="1434" dy="756" grid="1" gridSize="10" guides="1" tooltips="1" connect="1" arrows="1" fold="1" page="1" pageScale="1" pageWidth="827" pageHeight="1169" math="0" shadow="0">
      <root>
        <mxCell id="0" />
        <mxCell id="1" parent="0" />
        <mxCell id="j8toMgkH0YVoJOsgU-Vg-1" value="访问LMP" style="swimlane;childLayout=stackLayout;resizeParent=1;resizeParentMax=0;startSize=20;html=1;sketch=1;curveFitting=1;jiggle=2;" vertex="1" parent="1">
          <mxGeometry x="54" y="50" width="360" height="340" as="geometry" />
        </mxCell>
        <mxCell id="j8toMgkH0YVoJOsgU-Vg-2" value="用户" style="swimlane;startSize=20;html=1;sketch=1;curveFitting=1;jiggle=2;" vertex="1" parent="j8toMgkH0YVoJOsgU-Vg-1">
          <mxGeometry y="20" width="120" height="320" as="geometry" />
        </mxCell>
        <mxCell id="j8toMgkH0YVoJOsgU-Vg-5" value="开始" style="ellipse;whiteSpace=wrap;html=1;sketch=1;curveFitting=1;jiggle=2;" vertex="1" parent="j8toMgkH0YVoJOsgU-Vg-2">
          <mxGeometry x="19.999999999999545" y="30" width="80" height="50" as="geometry" />
        </mxCell>
        <mxCell id="j8toMgkH0YVoJOsgU-Vg-13" value="结束" style="ellipse;whiteSpace=wrap;html=1;sketch=1;curveFitting=1;jiggle=2;" vertex="1" parent="j8toMgkH0YVoJOsgU-Vg-2">
          <mxGeometry x="19.999999999999545" y="240" width="80" height="50" as="geometry" />
        </mxCell>
        <mxCell id="j8toMgkH0YVoJOsgU-Vg-3" value="LMP" style="swimlane;startSize=20;html=1;sketch=1;curveFitting=1;jiggle=2;" vertex="1" parent="j8toMgkH0YVoJOsgU-Vg-1">
          <mxGeometry x="120" y="20" width="120" height="320" as="geometry" />
        </mxCell>
        <mxCell id="j8toMgkH0YVoJOsgU-Vg-6" value="访问" style="whiteSpace=wrap;html=1;sketch=1;curveFitting=1;jiggle=2;" vertex="1" parent="j8toMgkH0YVoJOsgU-Vg-3">
          <mxGeometry x="20" y="32.5" width="80" height="45" as="geometry" />
        </mxCell>
        <mxCell id="j8toMgkH0YVoJOsgU-Vg-17" value="" style="edgeStyle=orthogonalEdgeStyle;rounded=0;orthogonalLoop=1;jettySize=auto;html=1;sketch=1;curveFitting=1;jiggle=2;" edge="1" parent="j8toMgkH0YVoJOsgU-Vg-3" source="j8toMgkH0YVoJOsgU-Vg-10" target="j8toMgkH0YVoJOsgU-Vg-16">
          <mxGeometry relative="1" as="geometry">
            <Array as="points">
              <mxPoint x="60" y="200" />
              <mxPoint x="60" y="200" />
            </Array>
          </mxGeometry>
        </mxCell>
        <mxCell id="j8toMgkH0YVoJOsgU-Vg-19" value="Y" style="edgeLabel;html=1;align=center;verticalAlign=middle;resizable=0;points=[];sketch=1;curveFitting=1;jiggle=2;" vertex="1" connectable="0" parent="j8toMgkH0YVoJOsgU-Vg-17">
          <mxGeometry x="-0.2081" y="-2" relative="1" as="geometry">
            <mxPoint as="offset" />
          </mxGeometry>
        </mxCell>
        <mxCell id="j8toMgkH0YVoJOsgU-Vg-10" value="新用户" style="rhombus;whiteSpace=wrap;html=1;sketch=1;curveFitting=1;jiggle=2;" vertex="1" parent="j8toMgkH0YVoJOsgU-Vg-3">
          <mxGeometry x="29.999999999999545" y="110" width="60" height="60" as="geometry" />
        </mxCell>
        <mxCell id="j8toMgkH0YVoJOsgU-Vg-16" value="写入sys-user" style="whiteSpace=wrap;html=1;sketch=1;curveFitting=1;jiggle=2;" vertex="1" parent="j8toMgkH0YVoJOsgU-Vg-3">
          <mxGeometry x="20" y="242.5" width="80" height="45" as="geometry" />
        </mxCell>
        <mxCell id="j8toMgkH0YVoJOsgU-Vg-4" value="Gov" style="swimlane;startSize=20;html=1;sketch=1;curveFitting=1;jiggle=2;" vertex="1" parent="j8toMgkH0YVoJOsgU-Vg-1">
          <mxGeometry x="240" y="20" width="120" height="320" as="geometry" />
        </mxCell>
        <mxCell id="j8toMgkH0YVoJOsgU-Vg-8" value="验证" style="whiteSpace=wrap;html=1;sketch=1;curveFitting=1;jiggle=2;" vertex="1" parent="j8toMgkH0YVoJOsgU-Vg-4">
          <mxGeometry x="20" y="32.5" width="80" height="45" as="geometry" />
        </mxCell>
        <mxCell id="j8toMgkH0YVoJOsgU-Vg-7" value="" style="edgeStyle=orthogonalEdgeStyle;rounded=0;orthogonalLoop=1;jettySize=auto;html=1;sketch=1;curveFitting=1;jiggle=2;" edge="1" parent="j8toMgkH0YVoJOsgU-Vg-1" source="j8toMgkH0YVoJOsgU-Vg-5" target="j8toMgkH0YVoJOsgU-Vg-6">
          <mxGeometry relative="1" as="geometry" />
        </mxCell>
        <mxCell id="j8toMgkH0YVoJOsgU-Vg-9" value="" style="edgeStyle=orthogonalEdgeStyle;rounded=0;orthogonalLoop=1;jettySize=auto;html=1;sketch=1;curveFitting=1;jiggle=2;" edge="1" parent="j8toMgkH0YVoJOsgU-Vg-1" source="j8toMgkH0YVoJOsgU-Vg-6" target="j8toMgkH0YVoJOsgU-Vg-8">
          <mxGeometry relative="1" as="geometry" />
        </mxCell>
        <mxCell id="j8toMgkH0YVoJOsgU-Vg-11" style="edgeStyle=orthogonalEdgeStyle;rounded=0;orthogonalLoop=1;jettySize=auto;html=1;entryX=1;entryY=0.5;entryDx=0;entryDy=0;sketch=1;curveFitting=1;jiggle=2;" edge="1" parent="j8toMgkH0YVoJOsgU-Vg-1" source="j8toMgkH0YVoJOsgU-Vg-8" target="j8toMgkH0YVoJOsgU-Vg-10">
          <mxGeometry relative="1" as="geometry">
            <Array as="points">
              <mxPoint x="300" y="160" />
            </Array>
          </mxGeometry>
        </mxCell>
        <mxCell id="j8toMgkH0YVoJOsgU-Vg-12" value="返回数据" style="edgeLabel;html=1;align=center;verticalAlign=middle;resizable=0;points=[];sketch=1;curveFitting=1;jiggle=2;" vertex="1" connectable="0" parent="j8toMgkH0YVoJOsgU-Vg-11">
          <mxGeometry x="0.1213" relative="1" as="geometry">
            <mxPoint as="offset" />
          </mxGeometry>
        </mxCell>
        <mxCell id="j8toMgkH0YVoJOsgU-Vg-14" style="edgeStyle=orthogonalEdgeStyle;rounded=0;orthogonalLoop=1;jettySize=auto;html=1;entryX=0.5;entryY=0;entryDx=0;entryDy=0;sketch=1;curveFitting=1;jiggle=2;" edge="1" parent="j8toMgkH0YVoJOsgU-Vg-1" source="j8toMgkH0YVoJOsgU-Vg-10" target="j8toMgkH0YVoJOsgU-Vg-13">
          <mxGeometry relative="1" as="geometry" />
        </mxCell>
        <mxCell id="j8toMgkH0YVoJOsgU-Vg-15" value="N" style="edgeLabel;html=1;align=center;verticalAlign=middle;resizable=0;points=[];sketch=1;curveFitting=1;jiggle=2;" vertex="1" connectable="0" parent="j8toMgkH0YVoJOsgU-Vg-14">
          <mxGeometry x="-0.8211" y="-3" relative="1" as="geometry">
            <mxPoint as="offset" />
          </mxGeometry>
        </mxCell>
        <mxCell id="j8toMgkH0YVoJOsgU-Vg-18" value="" style="edgeStyle=orthogonalEdgeStyle;rounded=0;orthogonalLoop=1;jettySize=auto;html=1;sketch=1;curveFitting=1;jiggle=2;" edge="1" parent="j8toMgkH0YVoJOsgU-Vg-1" source="j8toMgkH0YVoJOsgU-Vg-16" target="j8toMgkH0YVoJOsgU-Vg-13">
          <mxGeometry relative="1" as="geometry" />
        </mxCell>
      </root>
    </mxGraphModel>
  </diagram>
</mxfile>
